<?xml version="1.0" encoding="utf-8"?>
<!-- Generator: Adobe Illustrator 22.1.0, SVG Export Plug-In . SVG Version: 6.00 Build 0)  -->
<svg version="1.1" xmlns="http://www.w3.org/2000/svg" xmlns:xlink="http://www.w3.org/1999/xlink" x="0px" y="0px"
	 viewBox="0 0 625 329.3" style="enable-background:new 0 0 625 329.3;" xml:space="preserve">
<style type="text/css">
	.st0{fill:#FCFCFC;}
	.st1{fill:#87878C;}
	.st2{fill:#FFFFFF;}
	.st3{fill:#A2A2A5;}
	.st4{display:none;}
</style>
<g id="Layout">
	<g>
		<g>
			<path d="M525,0c-51,0-93.1,38.2-99.2,87.5h-328c-2.2,0-4,1.8-4,4V112c0,0.3,0.2,0.5,0.5,0.5h79.7c-6,36-37.8,63.4-75.8,62.5
				C58.4,174,26,141.6,25,101.8C24,59.6,58,25,100,25c20.5,0,39.1,8.3,52.7,21.6c0.2,0.2,0.5,0.2,0.7,0l17-17c0.2-0.2,0.2-0.5,0-0.7
				C151.8,10.6,126.2-0.5,98,0C44.4,1.1,0.8,44.9,0,98.6C-0.8,154.5,44.3,200,100,200c51,0,93.1-38.2,99.2-87.5h226.5
				C431.9,161.8,474,200,525,200c55.2,0,100-44.8,100-100S580.2,0,525,0z M525,175c-37.2,0-68-27-73.9-62.5h76.2c2.2,0,4-1.8,4-4V88
				c0-0.3-0.2-0.5-0.5-0.5H451C457,52,487.8,25,525,25c41.4,0,75,33.6,75,75S566.4,175,525,175z"/>
			<path d="M396,33.3H225.5c-0.3,0-0.5-0.2-0.5-0.5V12.3c0-2.2,1.8-4,4-4h170.5c0.3,0,0.5,0.2,0.5,0.5v20.5
				C400,31.5,398.2,33.3,396,33.3z"/>
			<path d="M396,191.7H225.5c-0.3,0-0.5-0.2-0.5-0.5v-20.5c0-2.2,1.8-4,4-4h170.5c0.3,0,0.5,0.2,0.5,0.5v20.5
				C400,189.9,398.2,191.7,396,191.7z"/>
		</g>
		<g>
			<path d="M447.8,306.7c-2.6,4.5-7.6,7.5-13.3,7.3c-7.5-0.3-13.6-6.5-13.9-13.9c-0.4-8.4,6.3-15.3,14.6-15.3
				c5.4,0,10.1,2.9,12.7,7.3c0.1,0.2,0.4,0.3,0.5,0.1l12.5-7.2c0.2-0.1,0.3-0.4,0.2-0.6c-5.5-9.4-15.9-15.6-27.8-14.8
				c-14.9,0.9-27,13-27.9,27.9c-1.1,17.4,12.7,31.8,29.8,31.8c11,0,20.7-6,25.9-14.9c0.1-0.2,0-0.4-0.2-0.6l-12.5-7.2
				C448.2,306.5,447.9,306.6,447.8,306.7z"/>
			<path d="M612,314h-23.7v-42.7c0-0.3-0.2-0.5-0.5-0.5h-14.8c-0.3,0-0.5,0.2-0.5,0.5v56.1c0,0.3,0.2,0.5,0.5,0.5h39
				c0.3,0,0.5-0.2,0.5-0.5v-12.9C612.5,314.3,612.2,314,612,314z"/>
			<path d="M12.6,327.4v-56.1c0-0.3,0.2-0.5,0.5-0.5h24c7.3,0,13.1,1.8,17.3,5.3c4.3,3.6,6.4,8.5,6.4,14.9c0,6.5-2.3,11.6-6.8,15.2
				c-4.5,3.6-10.4,5.4-17.8,5.4h-7.8v15.8c0,0.3-0.2,0.5-0.5,0.5H13.1C12.8,327.9,12.6,327.7,12.6,327.4z M28.4,299.2h7.5
				c2.8,0,5-0.7,6.6-2c1.6-1.4,2.4-3.2,2.4-5.5c0-2.4-0.8-4.3-2.4-5.6c-1.6-1.3-3.8-1.9-6.7-1.9h-7.4V299.2z"/>
			<path d="M89,327.4v-56.1c0-0.3,0.2-0.5,0.5-0.5H116c8.3,0,14.5,2,18.6,6.1c3.4,3.4,5.1,7.9,5.1,13.5c0,8.4-3.9,14.2-11.7,17.5
				l13.1,19.1c0.2,0.3,0,0.8-0.4,0.8h-17c-0.2,0-0.3-0.1-0.4-0.2l-11.4-17.1h-6.9v16.8c0,0.3-0.2,0.5-0.5,0.5H89.5
				C89.2,327.9,89,327.7,89,327.4z M104.8,298.2h10.4c2.7,0,4.7-0.6,6.2-1.8c1.5-1.2,2.2-2.9,2.2-5.1c0-2.2-0.7-3.9-2.2-5.1
				c-1.5-1.1-3.6-1.7-6.3-1.7h-10.4V298.2z"/>
			<path d="M266.1,327.4v-42.7h-18.2c-0.3,0-0.5-0.2-0.5-0.5v-12.9c0-0.3,0.2-0.5,0.5-0.5h52.3c0.3,0,0.5,0.2,0.5,0.5v12.9
				c0,0.3-0.2,0.5-0.5,0.5h-18.2v42.7c0,0.3-0.2,0.5-0.5,0.5h-14.8C266.3,327.9,266.1,327.7,266.1,327.4z"/>
			<path d="M197.2,269.5c-16.5,0-29.9,13.4-29.9,29.9c0,16.5,13.4,29.9,29.9,29.9c16.5,0,29.9-13.4,29.9-29.9
				C227.1,282.9,213.7,269.5,197.2,269.5z M197.2,314c-8.1,0-14.6-6.6-14.6-14.6c0-8.1,6.6-14.6,14.6-14.6c8.1,0,14.6,6.6,14.6,14.6
				C211.8,307.5,205.3,314,197.2,314z"/>
			<path d="M350.9,269.5c-16.5,0-29.9,13.4-29.9,29.9c0,16.5,13.4,29.9,29.9,29.9c16.5,0,29.9-13.4,29.9-29.9
				C380.8,282.9,367.4,269.5,350.9,269.5z M350.9,314c-8.1,0-14.6-6.6-14.6-14.6c0-8.1,6.6-14.6,14.6-14.6c8.1,0,14.6,6.6,14.6,14.6
				C365.5,307.5,359,314,350.9,314z"/>
			<path d="M513.6,269.5c-16.5,0-29.9,13.4-29.9,29.9c0,16.5,13.4,29.9,29.9,29.9c16.5,0,29.9-13.4,29.9-29.9
				C543.5,282.9,530.1,269.5,513.6,269.5z M513.6,314c-8.1,0-14.6-6.6-14.6-14.6c0-8.1,6.6-14.6,14.6-14.6c8.1,0,14.6,6.6,14.6,14.6
				C528.2,307.5,521.7,314,513.6,314z"/>
		</g>
	</g>
</g>
<g id="Rules" class="st4">
</g>
<g id="Layer_3">
</g>
</svg>
